<svg width="500" height="500" xmlns="http://www.w3.org/2000/svg">
 <defs>
  <linearGradient y2="0.975549" x2="0.914063" y1="-0.010621" x1="-0.058594" id="a">
   <stop stop-color="#76b3e1" offset="0.1"/>
   <stop stop-color="#dcf2fd" offset="0.3"/>
   <stop stop-color="#76b3e1" offset="1"/>
  </linearGradient>
  <linearGradient y2="1.325709" x2="0.379415" y1="-0.019485" x1="0.569961" id="b">
   <stop stop-color="#76b3e1" offset="0"/>
   <stop stop-color="#4377bb" offset="0.5"/>
   <stop stop-color="#1f3b77" offset="1"/>
  </linearGradient>
  <linearGradient y2="1.142331" x2="1.043369" y1="0.014223" x1="0.107089" id="c">
   <stop stop-color="#315aa9" offset="0"/>
   <stop stop-color="#518ac8" offset="0.5"/>
   <stop stop-color="#315aa9" offset="1"/>
  </linearGradient>
  <linearGradient y2="3.041634" x2="0.177619" y1="-0.441641" x1="0.619926" id="d">
   <stop stop-color="#4377bb" offset="0"/>
   <stop stop-color="#1a336b" offset="0.5"/>
   <stop stop-color="#1a336b" offset="1"/>
  </linearGradient>
 </defs>
 <g>
  <title>background</title>
  <rect fill="none" id="canvas_background" height="502" width="502" y="-1" x="-1"/>
 </g>
 <g>
  <title>Layer 1</title>
  <g stroke="null" id="svg_7">
   <path stroke="null" id="svg_1" fill="#76b3e1" d="m487.499999,122.651411s-158.333328,-116.50943 -280.817601,-89.622638l-8.962264,2.987421c-17.924528,5.974843 -32.861634,14.937106 -41.823898,26.886792l-5.974843,8.962264l-44.811319,77.672953l77.672953,14.937106c32.861634,20.911949 74.685532,29.874213 113.522009,20.911949l137.421379,26.886792l53.773583,-89.622638z"/>
   <path stroke="null" id="svg_2" fill="url(#a)" opacity="0.3" d="m487.499999,122.651411s-158.333328,-116.50943 -280.817601,-89.622638l-8.962264,2.987421c-17.924528,5.974843 -32.861634,14.937106 -41.823898,26.886792l-5.974843,8.962264l-44.811319,77.672953l77.672953,14.937106c32.861634,20.911949 74.685532,29.874213 113.522009,20.911949l137.421379,26.886792l53.773583,-89.622638z"/>
   <path stroke="null" id="svg_3" fill="#518ac8" d="m155.896237,122.651411l-11.949685,2.987421c-50.786162,14.937106 -65.723268,62.735847 -38.836477,104.559745c29.874213,38.836477 92.61006,59.748426 143.396222,44.811319l185.22012,-62.735847s-158.333328,-116.50943 -277.830179,-89.622638z"/>
   <path stroke="null" id="svg_4" fill="url(#b)" opacity="0.3" d="m155.896237,122.651411l-11.949685,2.987421c-50.786162,14.937106 -65.723268,62.735847 -38.836477,104.559745c29.874213,38.836477 92.61006,59.748426 143.396222,44.811319l185.22012,-62.735847s-158.333328,-116.50943 -277.830179,-89.622638z"/>
   <path stroke="null" id="svg_5" fill="url(#c)" d="m400.864782,257.085368a134.433958,134.433958 0 0 0 -143.396222,-44.811319l-185.22012,59.748426l-59.748426,104.559745l334.591184,56.761004l59.748426,-107.547166c11.949685,-20.911949 8.962264,-44.811319 -5.974843,-68.710689z"/>
   <path stroke="null" id="svg_6" fill="url(#d)" d="m341.116356,361.645113a134.433958,134.433958 0 0 0 -143.396222,-44.811319l-185.22012,59.748426s158.333328,119.496851 280.817601,89.622638l8.962264,-2.987421c50.786162,-14.937106 68.710689,-62.735847 38.836477,-101.572324z"/>
  </g>
 </g>
</svg>