<svg width="500" height="500" xmlns="http://www.w3.org/2000/svg">
 <defs>
  <linearGradient id="a" x1="-0.058594" y1="-0.010621" x2="0.914063" y2="0.975549">
   <stop offset="0.1" stop-color="#76b3e1"/>
   <stop offset="0.3" stop-color="#dcf2fd"/>
   <stop offset="1" stop-color="#76b3e1"/>
  </linearGradient>
  <linearGradient id="b" x1="0.569961" y1="-0.019485" x2="0.379415" y2="1.325709">
   <stop offset="0" stop-color="#76b3e1"/>
   <stop offset="0.5" stop-color="#4377bb"/>
   <stop offset="1" stop-color="#1f3b77"/>
  </linearGradient>
 </defs>
 <g>
  <title>background</title>
  <rect x="-1" y="-1" width="502" height="502" id="canvas_background" fill="none"/>
 </g>
 <g>
  <title>Layer 1</title>
  <g id="svg_7" stroke="null">
   <path d="m487.5,122.65141s-158.33333,-116.50943 -280.8176,-89.62264l-8.96227,2.98742c-17.92452,5.97485 -32.86163,14.93711 -41.82389,26.8868l-5.97485,8.96226l-44.81132,77.67295l77.67296,14.93711c32.86163,20.91195 74.68553,29.87421 113.52201,20.91195l137.42137,26.88679l53.77359,-89.62264z" fill="#76b3e1" id="svg_1" stroke="null"/>
   <path d="m487.5,122.65141s-158.33333,-116.50943 -280.8176,-89.62264l-8.96227,2.98742c-17.92452,5.97485 -32.86163,14.93711 -41.82389,26.8868l-5.97485,8.96226l-44.81132,77.67295l77.67296,14.93711c32.86163,20.91195 74.68553,29.87421 113.52201,20.91195l137.42137,26.88679l53.77359,-89.62264z" opacity="0.3" fill="url(#a)" id="svg_2" stroke="null"/>
   <path d="m155.89624,122.65141l-11.94969,2.98742c-50.78616,14.93711 -65.72327,62.73585 -38.83647,104.55975c29.87421,38.83647 92.61006,59.74842 143.39622,44.81132l185.22012,-62.73585s-158.33333,-116.50943 -277.83018,-89.62264z" fill="#518ac8" id="svg_3" stroke="null"/>
   <path d="m155.89624,122.65141l-11.94969,2.98742c-50.78616,14.93711 -65.72327,62.73585 -38.83647,104.55975c29.87421,38.83647 92.61006,59.74842 143.39622,44.81132l185.22012,-62.73585s-158.33333,-116.50943 -277.83018,-89.62264z" opacity="0.3" fill="url(#b)" id="svg_4" stroke="null"/>
   <path d="m400.86478,257.08537a134.43396,134.43396 0 0 0 -143.39622,-44.81132l-185.22012,59.74843l-59.74843,104.55974l334.59119,56.761l59.74842,-107.54716c11.94969,-20.91195 8.96227,-44.81132 -5.97484,-68.71069z" fill="#41b883" id="svg_5" stroke="null"/>
   <path d="m341.11636,361.64511a134.43396,134.43396 0 0 0 -143.39623,-44.81132l-185.22012,59.74843s158.33333,119.49685 280.81761,89.62264l8.96226,-2.98742c50.78616,-14.93711 68.71069,-62.73585 38.83648,-101.57233z" fill="#35495e" id="svg_6" stroke="null"/>
  </g>
 </g>
</svg>